<!-- icon666.com - MILLIONS vector ICONS FREE --><svg id="Layer_1" viewBox="0 0 64 64" xmlns="http://www.w3.org/2000/svg"><g><g><path d="m50.843 58.136h-42c-.791 0-1.565-.321-2.123-.881-.556-.555-.877-1.328-.877-2.119v-42c0-.792.322-1.567.882-2.125.551-.553 1.325-.875 2.118-.875h25c1.104 0 2 .896 2 2s-.896 2-2 2h-24v40h40v-24c0-1.104.896-2 2-2s2 .896 2 2v25c0 .79-.32 1.563-.879 2.121s-1.331.879-2.121.879z" fill="#000000" style="fill: rgb(255, 255, 255);"></path></g><g><path d="m35.086 36.136h-5.243c-1.104 0-2-.896-2-2v-5.243c0-.801.312-1.555.879-2.121l20.071-20.071c1.112-1.114 3.122-1.118 4.24-.002l4.245 4.244c.56.562.879 1.334.879 2.122 0 .79-.32 1.563-.879 2.121l-20.071 20.071c-.568.568-1.321.879-2.121.879zm-3.243-4h2.829l19.07-19.071-2.828-2.829-19.071 19.071z" fill="#000000" style="fill: rgb(255, 255, 255);"></path></g></g></svg>